# AST/ASF file generated using VICON BodyLanguage
# -----------------------------------------------
:version 1.10
:name VICON
:units
  mass 1.0
  length 0.45
  angle deg
:documentation
   .ast/.asf automatically generated from VICON data using
   VICON BodyBuilder and BodyLanguage model FoxedUp or BRILLIANT.MOD
:root
   order TX TY TZ RX RY RZ
   axis XYZ
   position 0 0 0  
   orientation 0 0 0 
:bonedata
  begin
     id 1 
     name lhipjoint
     direction 0.61522 -0.761478 0.204097 
     length 2.55743 
     axis 0 0 0  XYZ
  end
  begin
     id 2 
     name lfemur
     direction 0.34202 -0.939693 0  
     length 7.61162  
     axis 0 0 20  XYZ
    dof rx ry rz
    limits (-160.0 20.0)
           (-70.0 70.0)
           (-60.0 70.0)
  end
  begin
     id 3 
     name ltibia
     direction 0.34202 -0.939693 0   
     length 8.12393   
     axis 0 0 20   XYZ
    dof rx
    limits (-10.0 170.0)
  end
  begin
     id 4 
     name lfoot
     direction 0.0841971 -0.23133 0.969225   
     length 2.3572   
     axis -90 7.62852e-016 20   XYZ
    dof rx rz
    limits (-45.0 90.0)
           (-70.0 20.0)
  end
  begin
     id 5 
     name ltoes
     direction 1.53562e-011 -4.22209e-011 1   
     length 1.17993   
     axis -90 7.62852e-016 20   XYZ
    dof rx
    limits (-90.0 20.0)
  end
  begin
     id 6 
     name rhipjoint
     direction -0.625247 -0.75382 0.202044   
     length 2.58341  
     axis 0 0 0  XYZ 
  end
  begin
     id 7 
     name rfemur
     direction -0.34202 -0.939693 0   
     length 7.42147   
     axis 0 0 -20   XYZ
    dof rx ry rz
    limits (-160.0 20.0)
           (-70.0 70.0)
           (-70.0 60.0)
  end
  begin
     id 8 
     name rtibia
     direction -0.34202 -0.939693 0   
     length 8.20893   
     axis 0 0 -20   XYZ
    dof rx
    limits (-10.0 170.0)
 end
 begin
     id 9 
     name rfoot
     direction -0.124331 -0.341598 0.931586   
     length 2.45604  
     axis -90 -7.62852e-016 -20   XYZ
    dof rx rz
    limits (-45.0 90.0)
           (-20.0 70.0)
  end
  begin
     id 10 
     name rtoes
     direction -1.5353e-011 -4.2199e-011 1   
     length 1.21323   
     axis -90 -7.62852e-016 -20   XYZ
    dof rx
    limits (-90.0 20.0)
  end
  begin
     id 11 
     name lowerback
     direction -0.0218484 0.994884 -0.0986303   
     length 2.00523   
     axis 0 0 0   XYZ
    dof rx ry rz
    limits (-20.0 45.0)
           (-30.0 30.0)
           (-30.0 30.0)
  end
  begin
     id 12 
     name upperback
     direction -0.0097305 0.999717 -0.0217111   
     length 2.01352   
     axis 0 0 0   XYZ
    dof rx ry rz
    limits (-20.0 45.0)
           (-30.0 30.0)
           (-30.0 30.0)
  end
  begin
     id 13 
     name thorax
     direction -0.000928262 0.999699 0.0245198   
     length 2.02938   
     axis 0 0 0   XYZ
    dof rx ry rz
    limits (-20.0 45.0)
           (-30.0 30.0)
           (-30.0 30.0)
  end
  begin
     id 14 
     name lowerneck
     direction -0.0307979 0.998024 0.0547665   
     length 1.77263   
     axis 0 0 0   XYZ
    dof rx ry rz
    limits (-20.0 45.0)
           (-30.0 30.0)
           (-30.0 30.0)
  end
  begin
     id 15 
     name upperneck
     direction 0.0531587 0.996611 -0.0627734   
     length 1.77971   
     axis 0 0 0   XYZ
    dof rx ry rz
    limits (-20.0 45.0)
           (-30.0 30.0)
           (-30.0 30.0)
  end
  begin
     id 16
     name head
     direction 0.0213833 0.999404 -0.0271147  
     length 1.78263  
     axis 0 0 0   XYZ
    dof rx ry rz
    limits (-20.0 45.0)
           (-30.0 30.0)
           (-30.0 30.0)
  end
  begin
     id 17 
     name lclavicle
     direction 0.940017 0.332249 -0.0773233  
     length 3.73315  
     axis 0 0 0   XYZ
    dof ry rz
    limits (-20.0 10.0)
           (0.0 20.0)
  end
  begin
     id 18 
     name lhumerus
     direction 1 -4.48944e-011 7.52288e-028   
     length 5.40188   
     axis 180 -30 -90   XYZ
    dof rx ry rz
    limits (-60.0 90.0)
           (-90.0 90.0)
           (-90.0 90.0)
  end
  begin
     id 19
     name lradius
     direction 1 -4.48988e-011 1.48381e-027   
     length 3.68559   
     axis 180 -30 -90   XYZ
    dof rx
    limits (-10.0 170.0)
  end
  begin
     id 20
     name lwrist
     direction 1 -4.48925e-011 2.56952e-028   
     length 1.84279   
     axis -5.12785e-016 90 90   XYZ
    dof ry
    limits (-180.0 0.0)
 end
  begin
     id 21 
     name lhand
     direction 1 -4.49009e-011 5.13905e-028   
     length 0.61753   
     axis -3.27915e-016 90 90   XYZ
    dof rx rz
    limits (-90.0 90.0)
           (-45.0 45.0)
  end
  begin
     id 22 
     name lfingers
     direction 1 -4.49012e-011 1.02781e-027   
     length 0.497868   
     axis -6.5583e-016 90 90   XYZ
    dof rx
    limits (0.0 90.0)
  end
  begin
     id 23
     name lthumb
     direction 0.707107 -6.34987e-011 0.707107   
     length 0.714842   
     axis -90 45 2.85299e-015   XYZ
    dof rx rz
    limits (-45.0 45.0)
           (-45.0 45.0)
  end
  begin
     id 24 
     name rclavicle
     direction -0.9009 0.425937 -0.0834057   
     length 3.27864  
     axis 0 0 0   XYZ 
    dof ry rz
    limits (-10.0 20.0)
           (-20.0 0.0)
  end
  begin
     id 25 
     name rhumerus
     direction -1 -4.48953e-011 -1.03572e-027  
     length 6.1067   
     axis 180 30 90   XYZ
    dof rx ry rz
    limits (-90.0 60.0)
           (-90.0 90.0)
           (-90.0 90.0)
  end
  begin
     id 26 
     name rradius
     direction -1 -4.48975e-011 1.20742e-027   
     length 3.63052   
     axis 180 30 90   XYZ
    dof rx
    limits (-10.0 170.0)
  end
  begin
     id 27 
     name rwrist
     direction -1 -4.49017e-011 2.56952e-028   
     length 1.81526   
     axis -5.12785e-016 -90 -90   XYZ
    dof ry
    limits (-180.0 0.0)
  end
  begin
     id 28
     name rhand
     direction -1 -4.48832e-011 5.13905e-028   
     length 0.583848   
     axis -3.27915e-016 -90 -90   XYZ
    dof rx rz
    limits (-90.0 90.0)
           (-45.0 45.0)
  end
  begin
     id 29
     name rfingers
     direction -1 -4.48729e-011 1.02781e-027   
     length 0.470713   
     axis -6.5583e-016 -90 -90   XYZ
    dof rx
    limits (0.0 90.0)
  end
  begin
     id 30
     name rthumb
     direction -0.707107 -6.34964e-011 0.707107   
     length 0.675852   
     axis -90 -45 -2.85299e-015   XYZ
    dof rx rz
    limits (-45.0 45.0)
           (-45.0 45.0)
  end
:hierarchy
  begin
    root lhipjoint rhipjoint lowerback
    lhipjoint lfemur
    lfemur ltibia
    ltibia lfoot
    lfoot ltoes
    rhipjoint rfemur
    rfemur rtibia
    rtibia rfoot
    rfoot rtoes
    lowerback upperback
    upperback thorax
    thorax lowerneck lclavicle rclavicle
    lowerneck upperneck
    upperneck head
    lclavicle lhumerus
    lhumerus lradius
    lradius lwrist
    lwrist lhand lthumb
    lhand lfingers
    rclavicle rhumerus
    rhumerus rradius
    rradius rwrist
    rwrist rhand rthumb
    rhand rfingers
  end

#!OML:ASF F:\VICON\USERDATA\INSTALL\rory3\rory3.ASF
:FULLY-SPECIFIED
:DEGREES
80
root 0.347114 14.5047 -2.26992 3.17401 -4.25776 4.06498
lowerback 28.7085 0.887673 -4.36066
upperback 6.1866 -0.332144 -1.67146
thorax -8.87838 -0.0832197 0.759708
lowerneck -12.3639 -1.42919 -7.81676
upperneck -7.80491 -0.731002 8.65089
head -0.287481 -0.118976 4.25942
rclavicle -1.25234e-014 3.57812e-015
rhumerus -21.6884 -1.79203 -81.4906
rradius 36.7785
rwrist 13.6694
rhand -30.1663 -1.77129
rfingers 7.12502
rthumb -3.47808 -31.7227
lclavicle -1.25234e-014 3.57812e-015
lhumerus -23.2165 6.16933 79.4277
lradius 30.1037
lwrist 1.17598
lhand -29.8814 23.9658
lfingers 7.12502
lthumb -3.2029 53.9215
rfemur -52.0041 -5.49897 13.5687
rtibia 96.8338
rfoot -37.1949 -3.61043
rtoes -16.501
lfemur -48.5929 10.2528 -24.4886
ltibia 92.5742
lfoot -35.6517 -4.15735
ltoes -5.91367
81
root 0.346017 14.5141 -2.2748 3.29863 -4.31929 3.88616
lowerback 28.7578 0.886328 -4.29216
upperback 6.15292 -0.310573 -1.59666
thorax -8.94209 -0.0727143 0.796375
lowerneck -12.4841 -1.40703 -7.80818
upperneck -7.81367 -0.69713 8.53547
head -0.274065 -0.100461 4.21751
rclavicle 3.97569e-016 2.46493e-014
rhumerus -21.6522 -1.67375 -81.5286
rradius 36.5884
rwrist 13.563
rhand -29.7127 -1.70418
rfingers 7.12502
rthumb -3.03998 -31.6623
lclavicle 3.97569e-016 2.46493e-014
lhumerus -23.203 6.16099 79.5248
lradius 30.1359
lwrist 1.06996
lhand -29.7401 24.348
lfingers 7.12502
lthumb -3.06646 54.3057
rfemur -52.2009 -5.36984 13.7483
rtibia 96.794
rfoot -36.9438 -3.56229
rtoes -16.9529
lfemur -48.8428 10.2269 -24.2648
ltibia 92.6572
lfoot -35.4074 -3.96133
ltoes -6.71784
82
root 0.346826 14.5267 -2.2773 3.38086 -4.3676 3.80791
lowerback 28.7713 0.879131 -4.23318
upperback 6.17101 -0.301653 -1.58376
thorax -8.9291 -0.0703025 0.773879
lowerneck -12.7038 -1.38697 -7.75362
upperneck -7.7785 -0.667262 8.41422
head -0.228891 -0.0831438 4.16448
rclavicle 1.87852e-014 3.12092e-014
rhumerus -21.5478 -1.6053 -81.5894
rradius 36.4636
rwrist 13.2293
rhand -28.9692 -2.09071
rfingers 7.12502
rthumb -2.32201 -32.0578
lclavicle 1.87852e-014 3.12092e-014
lhumerus -23.1267 5.97305 79.6146
lradius 30.18
lwrist 1.09019
lhand -29.7702 24.6257
lfingers 7.12502
lthumb -3.09552 54.583
rfemur -52.3289 -5.31653 13.7688
rtibia 96.7854
rfoot -36.7037 -3.32521
rtoes -17.1482
lfemur -49.005 10.1059 -24.1218
ltibia 92.7024
lfoot -35.1444 -4.00347
ltoes -6.95672
83
root 0.346645 14.5446 -2.27909 3.42531 -4.34314 3.80157
lowerback 28.835 0.864392 -4.19282
upperback 6.19131 -0.316046 -1.62556
thorax -8.93757 -0.0782617 0.708723
lowerneck -12.9437 -1.38632 -7.65996
upperneck -7.6913 -0.667449 8.37833
head -0.159641 -0.0809122 4.13351
rclavicle -7.45443e-015 -9.14409e-015
rhumerus -21.4869 -1.6526 -81.6838
rradius 36.2524
rwrist 13.2453
rhand -28.2338 -3.26326
rfingers 7.12502
rthumb -1.61171 -33.2369
lclavicle -7.45443e-015 -9.14409e-015
lhumerus -23.1161 5.58034 79.6705
lradius 30.3799
lwrist 1.16448
lhand -29.8323 24.6077
lfingers 7.12502
lthumb -3.1555 54.5641
rfemur -52.3589 -5.3698 13.7124
rtibia 96.7872
rfoot -36.4823 -2.92411
rtoes -17.1586
lfemur -49.1404 9.89676 -24.0203
ltibia 92.7584
lfoot -34.836 -4.21778
ltoes -6.90366
84
root 0.346536 14.5665 -2.27656 3.43541 -4.31567 3.90624
lowerback 28.9065 0.866179 -4.2794
upperback 6.19105 -0.346584 -1.65893
thorax -8.97117 -0.0902097 0.731638
lowerneck -13.0371 -1.3915 -7.67315
upperneck -7.68434 -0.66704 8.3753
head -0.141341 -0.0784667 4.1355
rclavicle 2.28602e-015 -4.57205e-015
rhumerus -21.6013 -1.56897 -81.7223
rradius 36.034
rwrist 13.6742
rhand -27.9122 -4.57039
rfingers 7.12502
rthumb -1.30107 -34.5462
lclavicle 2.28602e-015 -4.57205e-015
lhumerus -23.1422 5.37345 79.7621
lradius 30.5168
lwrist 1.24206
lhand -29.934 24.5099
lfingers 7.12502
lthumb -3.25375 54.4648
rfemur -52.3333 -5.42893 13.4829
rtibia 96.7736
rfoot -36.257 -2.28883
rtoes -16.8282
lfemur -49.245 9.61729 -23.9711
ltibia 92.8599
lfoot -34.4985 -4.89776
ltoes -5.67142
85
root 0.346325 14.5833 -2.27144 3.48994 -4.36991 3.95047
lowerback 28.8284 0.891319 -4.34246
upperback 6.19766 -0.329808 -1.67297
thorax -8.92528 -0.0820854 0.746459
lowerneck -13.0644 -1.40528 -7.74489
upperneck -7.67701 -0.673297 8.44174
head -0.132555 -0.0786629 4.17392
rclavicle 2.98177e-016 7.55382e-015
rhumerus -21.7713 -1.39076 -81.7571
rradius 35.863
rwrist 13.9221
rhand -28.2664 -4.32335
rfingers 7.12502
rthumb -1.64319 -34.2968
lclavicle 2.98177e-016 7.55382e-015
lhumerus -23.108 5.18913 79.8596
lradius 30.5597
lwrist 1.3078
lhand -30.0687 24.0631
lfingers 7.12502
lthumb -3.38382 54.016
rfemur -52.3972 -5.38433 13.3141
rtibia 96.7269
rfoot -35.9203 -1.69707
rtoes -16.2582
lfemur -49.3517 9.42727 -23.8269
ltibia 92.9422
lfoot -34.1398 -5.90464
ltoes -3.66109
86
root 0.34506 14.5914 -2.27321 3.57697 -4.35969 3.95027
lowerback 28.8308 0.893991 -4.33865
upperback 6.16558 -0.327568 -1.68225
thorax -8.9632 -0.08009 0.732836
lowerneck -12.9909 -1.40508 -7.79078
upperneck -7.76667 -0.665852 8.50983
head -0.174737 -0.074679 4.208
rclavicle 2.98177e-015 -3.37934e-015
rhumerus -21.8656 -1.26102 -81.8081
rradius 35.6868
rwrist 13.8368
rhand -28.9064 -2.74943
rfingers 7.12502
rthumb -2.26131 -32.7172
lclavicle 2.98177e-015 -3.37934e-015
lhumerus -23.1582 4.92509 79.9288
lradius 30.7076
lwrist 1.30731
lhand -29.938 23.2593
lfingers 7.12502
lthumb -3.25754 53.2141
rfemur -52.5737 -5.44939 13.2579
rtibia 96.7632
rfoot -35.5414 -1.45349
rtoes -16.4571
lfemur -49.3666 9.32276 -23.7561
ltibia 92.8301
lfoot -33.7039 -6.0527
ltoes -3.50697
87
root 0.341901 14.5908 -2.2808 3.62072 -4.21591 3.95543
lowerback 28.9999 0.853095 -4.32066
upperback 6.12355 -0.38415 -1.67207
thorax -9.09216 -0.103695 0.753281
lowerneck -12.8955 -1.38436 -7.81444
upperneck -7.98018 -0.63049 8.51939
head -0.265284 -0.0581956 4.21765
rclavicle -5.96354e-015 -6.55989e-015
rhumerus -21.9066 -1.14268 -81.842
rradius 35.5573
rwrist 13.6759
rhand -28.9554 -1.46746
rfingers 7.12502
rthumb -2.30861 -31.4347
lclavicle -5.96354e-015 -6.55989e-015
lhumerus -23.2236 4.63763 80.012
lradius 30.9262
lwrist 1.34538
lhand -29.7849 22.856
lfingers 7.12502
lthumb -3.10972 52.8131
rfemur -52.7326 -5.63298 13.2094
rtibia 96.9211
rfoot -35.2494 -1.28719
rtoes -17.0959
lfemur -49.2609 9.19862 -23.7406
ltibia 92.7083
lfoot -33.3134 -5.67236
ltoes -4.63604
88
root 0.339766 14.5872 -2.28396 3.66737 -4.15548 3.95198
lowerback 29.0564 0.837489 -4.33614
upperback 6.13436 -0.407039 -1.63494
thorax -9.10614 -0.113421 0.812068
lowerneck -12.9544 -1.35991 -7.87315
upperneck -8.14016 -0.579354 8.48551
head -0.313329 -0.0298837 4.2199
rclavicle -6.95746e-016 3.57812e-015
rhumerus -21.9512 -0.87861 -81.8519
rradius 35.5489
rwrist 13.5493
rhand -28.8353 -1.30348
rfingers 7.12502
rthumb -2.19265 -31.272
lclavicle -6.95746e-016 3.57812e-015
lhumerus -23.1566 4.41301 80.1514
lradius 31.0967
lwrist 1.44929
lhand -29.8943 22.8039
lfingers 7.12502
lthumb -3.21541 52.7594
rfemur -52.9196 -5.70913 13.1284
rtibia 97.1007
rfoot -34.9903 -0.971239
rtoes -17.4947
lfemur -49.289 9.12291 -23.6707
ltibia 92.7508
lfoot -33.0115 -5.56183
ltoes -5.53604
89
root 0.336531 14.5664 -2.28716 3.71144 -4.1555 3.92736
lowerback 29.055 0.840016 -4.32186
upperback 6.16951 -0.398101 -1.63406
thorax -9.06591 -0.110703 0.801833
lowerneck -13.094 -1.36266 -7.79246
upperneck -8.2114 -0.583122 8.39365
head -0.314157 -0.0317418 4.17072
rclavicle 2.28602e-015 1.55052e-014
rhumerus -21.9766 -0.767345 -81.9086
rradius 35.4665
rwrist 13.7976
rhand -29.074 -1.32736
rfingers 7.12502
rthumb -2.42317 -31.2933
lclavicle 2.28602e-015 1.55052e-014
lhumerus -23.0561 4.1534 80.224
lradius 31.2565
lwrist 1.48479
lhand -30.0317 22.9028
lfingers 7.12502
lthumb -3.34807 52.8563
rfemur -53.2607 -5.75618 13.0825
rtibia 97.3839
rfoot -34.6917 -0.672737
rtoes -17.8128
lfemur -49.5597 9.09425 -23.5417
ltibia 92.962
lfoot -32.7433 -5.74437
ltoes -6.03202
90
root 0.3332 14.5642 -2.29125 3.76192 -4.13097 3.92787
lowerback 29.1124 0.840641 -4.31328
upperback 6.16614 -0.398534 -1.6376
thorax -9.09815 -0.110416 0.792917
lowerneck -13.2302 -1.41301 -7.71901
upperneck -8.21484 -0.653724 8.30254
head -0.287018 -0.0672195 4.12024
rclavicle 1.53064e-014 1.74931e-014
rhumerus -22.032 -0.682108 -81.9379
rradius 35.4101
rwrist 13.9168
rhand -28.8003 -1.44256
rfingers 7.12502
rthumb -2.1588 -31.4114
lclavicle 1.53064e-014 1.74931e-014
lhumerus -23.0439 3.8093 80.2914
lradius 31.4854
lwrist 1.55283
lhand -29.9651 23.1056
lfingers 7.12502
lthumb -3.28379 53.0601
rfemur -53.4781 -5.87318 13.0161
rtibia 97.5537
rfoot -34.3758 -0.385373
rtoes -18.2084
lfemur -49.7453 9.05935 -23.4144
ltibia 93.0628
lfoot -32.3528 -6.26326
ltoes -5.59312
91
root 0.331532 14.5602 -2.29698 3.85192 -4.0495 3.96155
lowerback 29.1367 0.804048 -4.30372
upperback 6.1386 -0.443485 -1.63106
thorax -9.13966 -0.130237 0.810664
lowerneck -13.212 -1.43578 -7.78265
upperneck -8.35711 -0.670573 8.30788
head -0.335766 -0.0742989 4.1344
rclavicle -2.5842e-015 -7.35503e-015
rhumerus -22.0873 -0.597964 -81.9211
rradius 35.4829
rwrist 13.6238
rhand -28.0887 -1.92696
rfingers 7.12502
rthumb -1.47153 -31.9016
lclavicle -2.5842e-015 -7.35503e-015
lhumerus -23.0939 3.51672 80.3834
lradius 31.741
lwrist 1.69205
lhand -30.1763 23.0354
lfingers 7.12502
lthumb -3.4877 52.9866
rfemur -53.7196 -6.06522 12.9125
rtibia 97.7592
rfoot -34.1125 -0.156787
rtoes -19.0863
lfemur -49.9481 8.99667 -23.3593
ltibia 93.1928
lfoot -32.0018 -6.69174
ltoes -5.36569
92
root 0.330176 14.5532 -2.3018 3.96545 -3.93067 3.99199
lowerback 29.0974 0.749194 -4.26835
upperback 6.11296 -0.499157 -1.61681
thorax -9.14744 -0.156131 0.826175
lowerneck -13.1039 -1.42039 -7.96177
upperneck -8.57713 -0.620847 8.40439
head -0.430526 -0.0455876 4.20793
rclavicle -1.16289e-014 1.98785e-016
rhumerus -22.129 -0.491795 -81.8983
rradius 35.6206
rwrist 13.2354
rhand -28.0956 -1.84486
rfingers 7.12502
rthumb -1.47826 -31.8195
lclavicle -1.16289e-014 1.98785e-016
lhumerus -23.1309 3.30986 80.47
lradius 31.9904
lwrist 1.82767
lhand -30.3072 22.965
lfingers 7.12502
lthumb -3.61413 52.9141
rfemur -54.0021 -6.29943 12.8133
rtibia 97.9483
rfoot -33.7973 0.0547122
rtoes -19.7904
lfemur -50.1948 8.91663 -23.3207
ltibia 93.3656
lfoot -31.7147 -6.97309
ltoes -5.49831
93
root 0.326908 14.5472 -2.30452 4.05076 -3.81996 4.05276
lowerback 29.1202 0.715468 -4.26453
upperback 6.08822 -0.54372 -1.62809
thorax -9.18519 -0.175794 0.827082
lowerneck -13.0921 -1.40891 -8.10821
upperneck -8.74213 -0.576007 8.51359
head -0.490392 -0.0180813 4.27979
rclavicle 4.77083e-015 3.97569e-016
rhumerus -22.1912 -0.46447 -81.9033
rradius 35.7195
rwrist 13.1732
rhand -28.9229 -1.13809
rfingers 7.12502
rthumb -2.27725 -31.1057
lclavicle 4.77083e-015 3.97569e-016
lhumerus -23.1304 3.09828 80.5219
lradius 32.2662
lwrist 1.91872
lhand -30.2501 23.2171
lfingers 7.12502
lthumb -3.55902 53.1672
rfemur -54.2447 -6.47765 12.6681
rtibia 98.1329
rfoot -33.4608 0.392184
rtoes -19.7701
lfemur -50.4351 8.84657 -23.3088
ltibia 93.555
lfoot -31.4434 -7.30103
ltoes -5.51508
